<svg id="Layer_1" height="512" viewBox="0 0 512 512" width="512" xmlns="http://www.w3.org/2000/svg" data-name="Layer 1"><path d="m268.106 41.086a1.7 1.7 0 0 0 -1.575-1.056l-13.65.06c-50.55-.68-90.656 39.83-90.706 90.56a90.535 90.535 0 0 0 41.9 76.72 14.96 14.96 0 0 1 6.925 12.73v55.9h30v-55.9a14.959 14.959 0 0 0 -6.92-12.73 90.6 90.6 0 0 1 -41.975-76.72c.045-45.683 32.615-83.071 76.001-89.564z" fill="#d4e1f4"/><path d="m126.24 278.21a7.623 7.623 0 0 1 6.34-3.21h-30a7.623 7.623 0 0 0 -6.34 3.21l-25.84 75.15a2.89 2.89 0 0 0 2.24 4.64h25.36v125.07c0 1.77 1.06 3.21 2.71 3.21l27.29 1.434v-129.714h-25.36a2.89 2.89 0 0 1 -2.24-4.64z" fill="#d4e1f4"/><g fill="#1ae5be"><path d="m194.007 155.153a64.122 64.122 0 0 1 -3.658-34.254 6 6 0 0 0 -11.838-1.968 76.12 76.12 0 0 0 4.349 40.669 6 6 0 0 0 11.147-4.443z"/><path d="m201.716 168.648a6 6 0 0 0 -10.249 6.242c.674 1.106 1.383 2.208 2.108 3.275a6 6 0 0 0 9.923-6.748c-.613-.901-1.212-1.833-1.782-2.769z"/><path d="m191.75 221.106a109.574 109.574 0 0 1 -9.074-6.848 6 6 0 0 0 -7.717 9.19 121.715 121.715 0 0 0 10.071 7.6 6 6 0 1 0 6.72-9.941z"/><path d="m133.7 109.225a6 6 0 1 0 11.809 2.131 108.309 108.309 0 0 1 6.424-21.956 6 6 0 1 0 -11.1-4.568 120.32 120.32 0 0 0 -7.133 24.393z"/><path d="m146.9 156.858a109.335 109.335 0 0 1 -3.077-22.675 6 6 0 0 0 -11.994.362 121.274 121.274 0 0 0 3.416 25.17 6 6 0 1 0 11.655-2.857z"/><path d="m169.417 43.167a121.711 121.711 0 0 0 -16.484 19.32 6 6 0 1 0 9.893 6.791 109.6 109.6 0 0 1 14.856-17.409 6 6 0 0 0 -8.265-8.7z"/><path d="m154.67 178.371a6 6 0 0 0 -10.793 5.244 121.131 121.131 0 0 0 13.444 21.554 6 6 0 0 0 9.459-7.385 109.08 109.08 0 0 1 -12.11-19.413z"/><path d="m212.489 16.787a120.461 120.461 0 0 0 -22.931 10.913 6 6 0 1 0 6.271 10.231 108.5 108.5 0 0 1 20.643-9.826 6 6 0 0 0 -3.983-11.319z"/><path d="m237.287 10.931a6 6 0 0 0 .744 11.953 5.905 5.905 0 0 0 .759-.048 110.686 110.686 0 0 1 11.348-.836 6 6 0 1 0 -.264-12 122.306 122.306 0 0 0 -12.587.931z"/><path d="m116.242 102.417h-21.331a6 6 0 0 0 0 12h21.331a6 6 0 0 0 0-12z"/><path d="m69.4 102.417a6 6 0 0 0 0 12h6.69a6 6 0 0 0 0-12z"/><path d="m111.405 140.675a6 6 0 0 0 0-12h-6.641a6 6 0 0 0 0 12z"/><path d="m91.705 134.675a6 6 0 0 0 -6-6h-30.825a6 6 0 1 0 0 12h30.825a6 6 0 0 0 6-6z"/><path d="m88.911 160.933a6 6 0 0 0 6 6h21.331a6 6 0 1 0 0-12h-21.331a6 6 0 0 0 -6 6z"/><path d="m69.4 166.933h6.69a6 6 0 0 0 0-12h-6.69a6 6 0 0 0 0 12z"/><path d="m120.9 88.16h6.641a6 6 0 0 0 0-12h-6.641a6 6 0 0 0 0 12z"/><path d="m65.016 82.16a6 6 0 0 0 6 6h30.825a6 6 0 0 0 0-12h-30.825a6 6 0 0 0 -6 6z"/><path d="m127.541 181.191h-6.641a6 6 0 0 0 0 12h6.641a6 6 0 0 0 0-12z"/><path d="m101.841 181.191h-30.825a6 6 0 1 0 0 12h30.825a6 6 0 0 0 0-12z"/><path d="m259.329 80.905-.1-8.492a6 6 0 1 0 -12 .136l.095 8.35a54.021 54.021 0 0 0 -.018 107.378l.011 8.269a6 6 0 0 0 6 5.992h.009a6 6 0 0 0 5.991-6.009l-.011-8.253a54.021 54.021 0 0 0 .018-107.371zm-6.023 95.713a42.029 42.029 0 1 1 42.025-42.029 42.074 42.074 0 0 1 -42.025 42.029z"/><path d="m253.306 128.748a5.227 5.227 0 1 1 0-10.442 5.514 5.514 0 0 1 4.39 2.11 6 6 0 0 0 9.462-7.381 17.364 17.364 0 0 0 -8.435-5.884v-.177a6 6 0 1 0 -12 0v.612a17.18 17.18 0 0 0 6.583 33.162 5.226 5.226 0 1 1 0 10.441 5.516 5.516 0 0 1 -4.39-2.109 6 6 0 1 0 -9.462 7.38 17.366 17.366 0 0 0 7.852 5.691v.054a6 6 0 1 0 12 0v-.085a17.175 17.175 0 0 0 -6-33.372z"/></g><path d="m285.561 434.631h-.018a6 6 0 0 0 -5.982 6.017l.065 21.686a6 6 0 0 0 6 5.982h.019a6 6 0 0 0 5.982-6.017l-.065-21.686a6 6 0 0 0 -6.001-5.982z" fill="#0635c9"/><path d="m285.236 338.207h.019a6 6 0 0 0 5.982-6.017l-.065-21.685a6 6 0 0 0 -6-5.983h-.018a6 6 0 0 0 -5.982 6.018l.065 21.685a6 6 0 0 0 5.999 5.982z" fill="#0635c9"/><path d="m285.5 424.946h.018a6 6 0 0 0 5.982-6.017l-.065-21.685a6 6 0 0 0 -6-5.982h-.019a6 6 0 0 0 -5.982 6.017l.065 21.685a6 6 0 0 0 6.001 5.982z" fill="#0635c9"/><path d="m285.366 381.577h.018a6 6 0 0 0 5.982-6.017l-.064-21.686a6 6 0 0 0 -6-5.982h-.018a6 6 0 0 0 -5.982 6.017l.064 21.686a6 6 0 0 0 6 5.982z" fill="#0635c9"/><path d="m181.513 377.772a45.735 45.735 0 1 0 45.713 45.735 45.776 45.776 0 0 0 -45.713-45.735zm0 79.469a33.735 33.735 0 1 1 33.713-33.734 33.762 33.762 0 0 1 -33.713 33.734z" fill="#0635c9"/><path d="m112.7 294.471h-3.457a6 6 0 0 0 0 12h3.457a6 6 0 1 0 0-12z" fill="#0635c9"/><path d="m194.97 294.471h-64a6 6 0 0 0 0 12h64a6 6 0 1 0 0-12z" fill="#0635c9"/><path d="m445.912 118.6a17.222 17.222 0 0 0 -16.112 11.219h-71.235v-6.21a7.735 7.735 0 0 0 -7.726-7.727h-10.414a88.076 88.076 0 0 0 -3.525-11.409h54.982a13.86 13.86 0 0 0 13.842-13.846v-22.049l4.276-.091a15.415 15.415 0 1 0 -.088-12l-6.108.131a10.167 10.167 0 0 0 -10.077 10.156v23.853a1.846 1.846 0 0 1 -1.842 1.846h-25.928v-42.29a13.415 13.415 0 1 0 -12 0v42.29h-22.719c-.522-.919-1.054-1.832-1.61-2.734l7.342-7.339a7.738 7.738 0 0 0 0-10.928l-18.279-18.283a7.725 7.725 0 0 0 -10.929 0l-7.308 7.311a88.133 88.133 0 0 0 -26.173-10.871v-7.87a7.742 7.742 0 0 0 -7.755-7.727l-13.664.063a94.355 94.355 0 0 0 -67.951 27.2 97.469 97.469 0 0 0 16.1 151.137 9.083 9.083 0 0 1 4.29 7.663v48.583h-102.719a13.845 13.845 0 0 0 -11.234 5.9 6.019 6.019 0 0 0 -.781 1.524l-25.63 74.721a9.132 9.132 0 0 0 -.081 8.59 8.754 8.754 0 0 0 7.779 4.79h18.874v118.867a9.118 9.118 0 0 0 8.791 9.206l185.112 9.716c.105 0 .209.008.314.008h.019a6.164 6.164 0 0 0 .7-.046c.055-.006.109-.017.165-.026q.279-.04.551-.107c.028-.007.057-.009.085-.016l107.333-28.045a5.916 5.916 0 0 0 1.277-.5 10.08 10.08 0 0 0 5.339-8.978v-103.742l22.322-.935a8.059 8.059 0 0 0 6.307-3.482 8.485 8.485 0 0 0 1.111-7.4l-23.629-73.923c-.667-2.086-2.7-5.613-8.846-5.793q-.079 0-.159 0l-98.58-.282v-55.776c.222-.153.439-.3.653-.454l7.387 7.387a7.724 7.724 0 0 0 10.929 0l18.28-18.282a7.736 7.736 0 0 0 0-10.927l-7.446-7.446c.771-1.245 1.5-2.509 2.2-3.783h86.552v34.056a5.962 5.962 0 0 1 -5.951 5.958h-15.684a16.961 16.961 0 1 0 .25 12h15.436a17.975 17.975 0 0 0 17.951-17.958v-34.479a11.588 11.588 0 0 0 -11.573-11.575h-81.457a88.38 88.38 0 0 0 3.114-10.256h10.477a7.736 7.736 0 0 0 7.726-7.728v-7.643h71.235a17.2 17.2 0 1 0 16.112-23.219zm-21.768-59.633a3.417 3.417 0 1 1 -3.412 3.417 3.418 3.418 0 0 1 3.412-3.417zm-64.187-22.188a1.419 1.419 0 1 1 -1.415 1.419 1.419 1.419 0 0 1 1.415-1.419zm20.982 193.969a4.95 4.95 0 1 1 4.944-4.95 4.952 4.952 0 0 1 -4.944 4.95zm-303.789 121.452 24.4-71.13a1.633 1.633 0 0 1 1.034-.4h173.9l-26.26 71.53zm140.15-83.522v-25.93h70.417v25.937zm171.9 194.087-97.5 25.472-.013-4.256a6 6 0 0 0 -6-5.981h-.019a6 6 0 0 0 -5.982 6.019l.017 5.656-176.2-9.247v-116.228h149.097a8.743 8.743 0 0 0 7.236-3.877 5.953 5.953 0 0 0 .663-1.3l23.6-64.286a6.106 6.106 0 0 0 1.009.091h.019a5.958 5.958 0 0 0 3.054-.853l33.158 65.038a8.161 8.161 0 0 0 7.279 4.551c.109 0 .22 0 .33-.007l60.249-2.523zm7.489-181.765 21.36 66.826-87.092 3.649-36.078-70.766zm-50.124-135.81h-9.653a7.744 7.744 0 0 0 -7.575 6.24 76.365 76.365 0 0 1 -11.676 28.051 7.74 7.74 0 0 0 .933 9.787l6.869 6.871-12.237 12.238-6.9-6.9a7.736 7.736 0 0 0 -9.756-.95c-.891.6-1.675 1.149-2.441 1.688-.96.676-1.866 1.314-2.913 1.985a7.543 7.543 0 0 0 -3.5 6.377v20.171h-28.347l-.016-11.879a6 6 0 0 0 -6-5.992h-.008a6 6 0 0 0 -5.992 6.008l.016 11.863h-30.069v-10.648a21.022 21.022 0 0 0 -9.852-17.789 85.47 85.47 0 0 1 -14.114-132.469 82.2 82.2 0 0 1 53.6-23.6l.089 7.844a6 6 0 0 0 6 5.932h.069a6 6 0 0 0 5.932-6.067l-.089-7.879 3.345-.016v7.03a7.741 7.741 0 0 0 6.251 7.577 76.381 76.381 0 0 1 28.177 11.7 7.741 7.741 0 0 0 9.785-.935l6.732-6.733 12.237 12.239-6.758 6.758a7.745 7.745 0 0 0 -.946 9.773 76.342 76.342 0 0 1 11.625 28.154 7.742 7.742 0 0 0 7.58 6.264h9.6zm99.347-4.157a5.215 5.215 0 1 1 5.208-5.214 5.217 5.217 0 0 1 -5.208 5.214z" fill="#0635c9"/></svg>